<svg xmlns="http://www.w3.org/2000/svg" width="1200" height="680" viewBox="0 0 1200 680">
  <rect width="1200" height="680" fill="#f5f7fb"/>
  <rect width="220" height="680" fill="#001529"/>
  <rect x="24" y="22" width="28" height="28" rx="8" fill="#1677ff"/>
  <text x="62" y="42" fill="#fff" font-family="Segoe UI, Microsoft YaHei, sans-serif" font-size="16" font-weight="700">DamaiHelper</text>
  <g font-family="Segoe UI, Microsoft YaHei, sans-serif" font-size="14" fill="#ffffffa6">
    <text x="36" y="115">Overview</text>
    <text x="36" y="165">Config</text>
    <rect x="12" y="190" width="196" height="40" rx="8" fill="#1677ff"/>
    <text x="36" y="215" fill="#fff">Tasks</text>
    <text x="36" y="265">YOLO / CUDA</text>
  </g>
  <rect x="220" width="980" height="64" fill="#fff"/>
  <text x="248" y="40" fill="#1f1f1f" font-family="Segoe UI, Microsoft YaHei, sans-serif" font-size="18" font-weight="600">Task Runner</text>
  <rect x="248" y="96" width="680" height="520" rx="12" fill="#fff"/>
  <text x="272" y="132" fill="#1f1f1f" font-family="Segoe UI, Microsoft YaHei, sans-serif" font-size="15" font-weight="600">Controls</text>
  <rect x="400" y="114" width="72" height="22" rx="11" fill="#e6f4ff"/>
  <text x="414" y="130" fill="#1677ff" font-size="12" font-family="Segoe UI, sans-serif">running</text>
  <rect x="272" y="160" width="120" height="36" rx="8" fill="#1677ff"/>
  <text x="292" y="183" fill="#fff" font-size="13" font-family="Segoe UI, Microsoft YaHei, sans-serif">Start dry-run</text>
  <rect x="404" y="160" width="80" height="36" rx="8" fill="#fff" stroke="#ff4d4f"/>
  <text x="428" y="183" fill="#ff4d4f" font-size="13" font-family="Segoe UI, Microsoft YaHei, sans-serif">Stop</text>
  <rect x="272" y="220" width="620" height="10" rx="5" fill="#f0f0f0"/>
  <rect x="272" y="220" width="430" height="10" rx="5" fill="#1677ff"/>
  <text x="900" y="230" fill="#595959" font-size="12" font-family="Segoe UI, sans-serif">69%</text>
  <rect x="272" y="250" width="620" height="330" rx="10" fill="#0b1220"/>
  <g font-family="ui-monospace, Consolas, monospace" font-size="12">
    <text x="288" y="278" fill="#7f8da3">[19:41:10]</text><text x="370" y="278" fill="#b37feb">[SYSTEM]</text><text x="440" y="278" fill="#d7e0f2"> task started (dry-run)</text>
    <text x="288" y="304" fill="#7f8da3">[19:41:11]</text><text x="370" y="304" fill="#91caff">[INFO]</text><text x="430" y="304" fill="#d7e0f2"> stealth driver patch</text>
    <text x="288" y="330" fill="#7f8da3">[19:41:14]</text><text x="370" y="330" fill="#91caff">[INFO]</text><text x="430" y="330" fill="#d7e0f2"> parse session cards</text>
    <text x="288" y="356" fill="#7f8da3">[19:41:17]</text><text x="370" y="356" fill="#73d13d">[AI]</text><text x="420" y="356" fill="#d7e0f2"> YOLO slider offset=150px</text>
    <text x="288" y="382" fill="#7f8da3">[19:41:19]</text><text x="370" y="382" fill="#b37feb">[SYSTEM]</text><text x="440" y="382" fill="#d7e0f2"> task completed</text>
  </g>
  <rect x="952" y="96" width="196" height="520" rx="12" fill="#fff"/>
  <text x="972" y="132" fill="#1f1f1f" font-family="Segoe UI, Microsoft YaHei, sans-serif" font-size="15" font-weight="600">Dependencies</text>
  <rect x="972" y="160" width="156" height="180" rx="8" fill="#fafafa" stroke="#f0f0f0"/>
  <text x="984" y="190" fill="#8c8c8c" font-size="12" font-family="Consolas, monospace">ultralytics</text>
  <text x="984" y="214" fill="#8c8c8c" font-size="12" font-family="Consolas, monospace">httpx</text>
  <text x="984" y="238" fill="#8c8c8c" font-size="12" font-family="Consolas, monospace">orjson</text>
  <rect x="972" y="360" width="156" height="40" rx="8" fill="#1677ff"/>
  <text x="1000" y="385" fill="#fff" font-size="13" font-family="Segoe UI, Microsoft YaHei, sans-serif">Install task</text>
</svg>
